<svg width="25" height="25" viewBox="0 0 25 25" fill="none" xmlns="http://www.w3.org/2000/svg">
<path d="M11.5354 0.550288C11.1926 0.902744 11 1.38071 11 1.87909C11 2.37746 11.1926 2.85543 11.5354 3.20788L20.5864 12.5113L11.5354 21.8148C11.2023 22.1693 11.018 22.644 11.0221 23.1368C11.0263 23.6296 11.2186 24.101 11.5576 24.4495C11.8966 24.798 12.3553 24.9956 12.8347 24.9999C13.3141 25.0042 13.776 24.8148 14.1208 24.4724L24.4646 13.8401C24.8074 13.4877 25 13.0097 25 12.5113C25 12.013 24.8074 11.535 24.4646 11.1825L14.1208 0.550288C13.778 0.197939 13.313 -5.25882e-07 12.8281 -5.47699e-07C12.3433 -5.69516e-07 11.8783 0.197938 11.5354 0.550288Z" fill="#D9D9D9"/>
<path d="M0.535358 0.550288C0.192569 0.902744 -5.86285e-08 1.38071 -7.97907e-08 1.87909C-1.00953e-07 2.37746 0.192569 2.85543 0.535358 3.20788L9.5864 12.5113L0.535358 21.8148C0.202283 22.1693 0.0179806 22.644 0.0221471 23.1368C0.0263128 23.6296 0.218614 24.101 0.557631 24.4495C0.896649 24.798 1.35526 24.9956 1.83468 24.9999C2.31411 25.0042 2.77599 24.8148 3.12085 24.4724L13.4646 13.8401C13.8074 13.4877 14 13.0097 14 12.5113C14 12.013 13.8074 11.535 13.4646 11.1825L3.12085 0.550288C2.77796 0.197939 2.31295 -5.25882e-07 1.8281 -5.47699e-07C1.34325 -5.69516e-07 0.878252 0.197938 0.535358 0.550288Z" fill="#D9D9D9"/>
</svg>
