<svg width="83" height="83" viewBox="0 0 83 83" fill="none" xmlns="http://www.w3.org/2000/svg">
<g filter="url(#filter0_d_1_58)">
<path d="M44.084 11.0037C46.2731 10.9953 48.4622 11.0173 50.6507 11.0697L51.2327 11.0907C51.9046 11.1147 52.5676 11.1447 53.3686 11.1807C56.5604 11.3307 58.7383 11.8347 60.6492 12.5756C62.6291 13.3376 64.297 14.3696 65.9649 16.0375C67.49 17.5363 68.6702 19.3492 69.4237 21.3503C70.1647 23.2613 70.6687 25.4422 70.8187 28.6341C70.8547 29.4321 70.8847 30.098 70.9087 30.77L70.9267 31.352C70.98 33.5395 71.003 35.7276 70.9957 37.9158L70.9987 40.1537V44.0836C71.006 46.2727 70.983 48.4618 70.9297 50.6503L70.9117 51.2323C70.8877 51.9043 70.8577 52.5673 70.8217 53.3682C70.6717 56.5601 70.1617 58.7381 69.4237 60.649C68.6727 62.6522 67.4921 64.4667 65.9649 65.9648C64.4649 67.4897 62.651 68.67 60.6492 69.4237C58.7383 70.1647 56.5604 70.6687 53.3686 70.8187C52.5676 70.8547 51.9046 70.8847 51.2327 70.9087L50.6507 70.9267C48.4622 70.98 46.2731 71.003 44.084 70.9957L41.8461 70.9986H37.9193C35.7302 71.006 33.5411 70.983 31.3527 70.9297L30.7707 70.9117C30.0586 70.8858 29.3466 70.8558 28.6348 70.8217C25.443 70.6717 23.2651 70.1617 21.3512 69.4237C19.3494 68.6718 17.5361 67.4912 16.0385 65.9648C14.5117 64.4657 13.3303 62.6516 12.5767 60.649C11.8357 58.7381 11.3317 56.5601 11.1817 53.3682C11.1483 52.6564 11.1183 51.9444 11.0917 51.2323L11.0767 50.6503C11.0214 48.4619 10.9964 46.2727 11.0017 44.0836V37.9158C10.9934 35.7277 11.0154 33.5395 11.0677 31.352L11.0887 30.77C11.1127 30.098 11.1427 29.4321 11.1787 28.6341C11.3287 25.4392 11.8327 23.2643 12.5736 21.3503C13.3277 19.3483 14.5114 17.5358 16.0415 16.0405C17.5381 14.5128 19.3502 13.3303 21.3512 12.5756C23.2651 11.8347 25.44 11.3307 28.6348 11.1807L30.7707 11.0907L31.3527 11.0757C33.5401 11.0204 35.7282 10.9954 37.9163 11.0007L44.084 11.0037ZM41.0002 26.0032C39.0128 25.9751 37.0397 26.3422 35.1954 27.0833C33.3512 27.8245 31.6726 28.9247 30.2573 30.3202C28.8419 31.7157 27.7181 33.3785 26.951 35.2122C26.1839 37.0458 25.7888 39.0136 25.7888 41.0012C25.7888 42.9888 26.1839 44.9566 26.951 46.7902C27.7181 48.6238 28.8419 50.2867 30.2573 51.6821C31.6726 53.0776 33.3512 54.1779 35.1954 54.919C37.0397 55.6601 39.0128 56.0273 41.0002 55.9992C44.9782 55.9992 48.7933 54.4189 51.6062 51.6059C54.4191 48.793 55.9994 44.9778 55.9994 40.9997C55.9994 37.0216 54.4191 33.2064 51.6062 30.3934C48.7933 27.5805 44.9782 26.0032 41.0002 26.0032ZM41.0002 32.003C42.1957 31.9809 43.3835 32.1974 44.4944 32.6396C45.6053 33.0818 46.6169 33.7409 47.4702 34.5785C48.3235 35.4161 49.0013 36.4153 49.4641 37.5178C49.9269 38.6203 50.1653 39.804 50.1655 40.9996C50.1657 42.1953 49.9277 43.3791 49.4652 44.4817C49.0028 45.5844 48.3253 46.5838 47.4723 47.4217C46.6193 48.2595 45.6079 48.919 44.4972 49.3616C43.3864 49.8042 42.1987 50.021 41.0032 49.9994C38.6164 49.9994 36.3273 49.0512 34.6396 47.3634C32.9518 45.6756 32.0037 43.3865 32.0037 40.9997C32.0037 38.6128 32.9518 36.3237 34.6396 34.6359C36.3273 32.9482 38.6164 32 41.0032 32L41.0002 32.003ZM56.7494 21.5033C55.7816 21.5421 54.8664 21.9538 54.1953 22.6522C53.5243 23.3506 53.1495 24.2816 53.1495 25.2502C53.1495 26.2188 53.5243 27.1498 54.1953 27.8482C54.8664 28.5466 55.7816 28.9583 56.7494 28.9971C57.7439 28.9971 58.6977 28.602 59.4009 27.8988C60.1041 27.1955 60.4992 26.2417 60.4992 25.2472C60.4992 24.2527 60.1041 23.2989 59.4009 22.5956C58.6977 21.8924 57.7439 21.4973 56.7494 21.4973V21.5033Z" fill="#0D0129"/>
</g>
<defs>
<filter id="filter0_d_1_58" x="-4" y="0" width="91" height="91" filterUnits="userSpaceOnUse" color-interpolation-filters="sRGB">
<feFlood flood-opacity="0" result="BackgroundImageFix"/>
<feColorMatrix in="SourceAlpha" type="matrix" values="0 0 0 0 0 0 0 0 0 0 0 0 0 0 0 0 0 0 127 0" result="hardAlpha"/>
<feOffset dy="4"/>
<feGaussianBlur stdDeviation="2"/>
<feComposite in2="hardAlpha" operator="out"/>
<feColorMatrix type="matrix" values="0 0 0 0 0 0 0 0 0 0 0 0 0 0 0 0 0 0 0.25 0"/>
<feBlend mode="normal" in2="BackgroundImageFix" result="effect1_dropShadow_1_58"/>
<feBlend mode="normal" in="SourceGraphic" in2="effect1_dropShadow_1_58" result="shape"/>
</filter>
</defs>
</svg>
