<svg width="67" height="67" viewBox="0 0 67 67" fill="none" xmlns="http://www.w3.org/2000/svg">
<path d="M59.9013 16.9189L32.9381 4.17958C32.6779 4.05812 32.3937 3.99679 32.1066 4.00013C31.8195 4.00347 31.5368 4.07141 31.2795 4.1989C31.0222 4.32638 30.7969 4.51016 30.6202 4.7366C30.4436 4.96304 30.3202 5.22634 30.2591 5.50698C30.2528 5.52779 28.0959 15.5561 24.8927 25.5533C23.8007 28.98 22.5776 32.3672 21.3005 35.3424L24.7637 36.9777C28.9237 27.3197 32.2185 13.9874 33.4581 8.65489L56.8936 19.7131C56.1739 22.861 54.329 30.58 51.86 38.2864C50.2646 43.2798 48.3968 48.2669 46.4832 51.8767C44.632 55.6009 42.4105 57.4318 41.9134 57.1863C38.9598 57.2487 36.8839 54.5606 35.4862 51.1152C34.8982 49.5994 34.441 48.036 34.1196 46.4422C33.8533 45.1564 33.7722 44.3492 33.766 44.3492C33.7329 44.0239 33.6157 43.7129 33.4261 43.4466C33.2365 43.1803 32.9809 42.968 32.6844 42.8304L5.72746 30.0973C5.42033 29.9523 5.0803 29.8914 4.74197 29.9206C4.40364 29.9498 4.0791 30.0682 3.80137 30.2637C3.52526 30.461 3.30655 30.7281 3.16766 31.0378C3.02877 31.3475 2.97469 31.6885 3.01097 32.026C3.02761 32.1217 3.41657 35.875 4.98074 39.801C6.0665 42.5474 7.90731 45.6641 10.9004 47.2391L37.849 59.993L37.8615 59.968C39.0305 60.5818 40.3575 60.9813 41.9113 61C45.6491 60.7566 47.6875 57.5296 49.8528 53.666C56.0928 41.8275 60.9184 19.1285 60.9559 19.0453C61.0482 18.625 60.9947 18.1858 60.8041 17.8001C60.6136 17.4143 60.2974 17.105 59.9075 16.9231L59.9013 16.9189Z" fill="#0D0129"/>
</svg>
