<svg width="60" height="60" viewBox="0 0 60 60" fill="none" xmlns="http://www.w3.org/2000/svg">
<path d="M30.1931 7H30.5269C33.6096 7.01121 49.2293 7.12332 53.4408 8.25189C54.714 8.59632 55.8742 9.26769 56.8054 10.1989C57.7366 11.1301 58.4063 12.2885 58.7474 13.5584C59.1262 14.9785 59.3925 16.8582 59.5725 18.7977L59.61 19.1863L59.6925 20.1579L59.7225 20.5466C59.9662 23.9622 59.9962 27.161 60 27.8599V28.1401C59.9962 28.8651 59.9625 32.2807 59.6925 35.8383L59.6625 36.2307L59.6287 36.6194C59.4412 38.7569 59.1637 40.8795 58.7474 42.4416C58.4073 43.712 57.738 44.871 56.8066 45.8023C55.8753 46.7337 54.7145 47.4047 53.4408 47.7481C49.0906 48.914 32.5558 48.9963 30.2644 49H29.7319C28.573 49 23.7802 48.9776 18.7549 48.8057L18.1174 48.7833L17.7911 48.7683L17.1498 48.7421L16.5085 48.716C12.3458 48.5329 8.38177 48.2377 6.55541 47.7444C5.28217 47.4013 4.12175 46.7308 3.19042 45.8002C2.25908 44.8695 1.58952 43.7113 1.24883 42.4416C0.832552 40.8833 0.555035 38.7569 0.367523 36.6194L0.337521 36.227L0.307519 35.8383C0.122436 33.3061 0.0198757 30.7686 0 28.2298L0 27.7702C0.00750047 26.9667 0.0375023 24.1901 0.240015 21.1258L0.266267 20.7409L0.277517 20.5466L0.307519 20.1579L0.390024 19.1863L0.427527 18.7977C0.607538 16.8582 0.873805 14.9747 1.25258 13.5584C1.5927 12.288 2.262 11.129 3.19337 10.1977C4.12475 9.26631 5.28547 8.59529 6.55916 8.25189C8.38552 7.76608 12.3495 7.46712 16.5123 7.28027L17.1498 7.25411L17.7949 7.23169L18.1174 7.22048L18.7587 7.19432C22.3278 7.07988 25.8984 7.01634 29.4693 7.00374H30.1931V7ZM24.0015 18.9957V37.0005L39.5912 28.0019L24.0015 18.9957Z" fill="#0D0129"/>
</svg>
